<?xml version="1.0" encoding="UTF-8" standalone="no"?>
<svg
   xmlns:dc="http://purl.org/dc/elements/1.1/"
   xmlns:cc="http://creativecommons.org/ns#"
   xmlns:rdf="http://www.w3.org/1999/02/22-rdf-syntax-ns#"
   xmlns:svg="http://www.w3.org/2000/svg"
   xmlns="http://www.w3.org/2000/svg"
   xmlns:sodipodi="http://sodipodi.sourceforge.net/DTD/sodipodi-0.dtd"
   xmlns:inkscape="http://www.inkscape.org/namespaces/inkscape"
   width="200mm"
   height="140mm"
   viewBox="0 0 200 140"
   version="1.1"
   id="svg8"
   inkscape:version="1.0.2-2 (e86c870879, 2021-01-15)"
   sodipodi:docname="logo2.svg"
   inkscape:export-filename="C:\Users\Korisnik\Desktop\Nikolas_Dragic_Websjedište\images\logo3.png"
   inkscape:export-xdpi="130.2977"
   inkscape:export-ydpi="130.2977">
  <defs
     id="defs2">
    <rect
       x="66.352539"
       y="149.7583"
       width="84.335938"
       height="13.332519"
       id="rect1361" />
    <rect
       x="20.199846"
       y="104.87318"
       width="172.8213"
       height="120.23652"
       id="rect858" />
    <rect
       x="20.199846"
       y="104.87318"
       width="172.8213"
       height="120.23652"
       id="rect1476" />
  </defs>
  <sodipodi:namedview
     id="base"
     pagecolor="#2e8b57"
     bordercolor="#666666"
     borderopacity="1.0"
     inkscape:pageopacity="1"
     inkscape:pageshadow="2"
     inkscape:zoom="0.63574646"
     inkscape:cx="231.1839"
     inkscape:cy="350.37918"
     inkscape:document-units="mm"
     inkscape:current-layer="layer1"
     inkscape:document-rotation="0"
     showgrid="false"
     inkscape:window-width="1920"
     inkscape:window-height="1001"
     inkscape:window-x="-9"
     inkscape:window-y="-9"
     inkscape:window-maximized="1"
     units="mm" />
  <metadata
     id="metadata5">
    <rdf:RDF>
      <cc:Work
         rdf:about="">
        <dc:format>image/svg+xml</dc:format>
        <dc:type
           rdf:resource="http://purl.org/dc/dcmitype/StillImage" />
        <dc:title></dc:title>
      </cc:Work>
    </rdf:RDF>
  </metadata>
  <g
     inkscape:label="Sloj 1"
     inkscape:groupmode="layer"
     id="layer1">
    <circle
       style="fill:none;fill-opacity:1;fill-rule:evenodd;stroke:#ffffff;stroke-width:1.51372;stroke-miterlimit:4;stroke-dasharray:0, 16.6511;stroke-dashoffset:15.1372;stroke-opacity:1"
       id="path1403"
       sodipodi:type="arc"
       sodipodi:cx="-119.92606"
       sodipodi:cy="163.10072"
       sodipodi:rx="57.103638"
       sodipodi:ry="55.03614"
       sodipodi:start="0.13796356"
       sodipodi:end="3.0068358"
       sodipodi:open="true"
       sodipodi:arc-type="arc"
       transform="matrix(-0.99970902,-0.02412196,-0.06109099,0.9981322,0,0)"
       d="m -63.365018,170.66964 a 57.103638,55.03614 0 0 1 -56.652602,47.46715 57.103638,55.03614 0 0 1 -56.49438,-47.642" />
    <path
       style="fill:none;fill-opacity:1;stroke:#ffffff;stroke-width:0.639272px;stroke-linecap:butt;stroke-linejoin:miter;stroke-opacity:1"
       d="m 122.69709,53.141835 -0.5518,0.375221 -0.19861,0.264862 v 0.286938 l 0.22085,0.154489 c 0,0 0.70628,0 0.79457,0 0.0882,0 1.1036,-0.198656 1.1036,-0.198656 l 0.92702,-0.24279 1.47883,-0.02199 h 1.67747 1.83196 c 0,0 1.72164,0 1.80992,0 0.0882,0 1.74368,0.06622 1.74368,0.06622 l 0.72838,0.220715 0.66217,0.220715 1.03737,0.198655 0.97117,0.06622 1.40735,0.347189 0.81936,0.366773 0.80377,0.171666 c 0,0 0.39018,0.101449 0.44482,0.117064 0.0546,0.01571 0.48381,0.02344 0.48381,0.02344 l 0.28093,-0.0468 0.14037,-0.156083 c 0,0 0.0312,-0.218493 0.007,-0.265322 -0.0242,-0.0468 -0.17179,-0.343362 -0.17179,-0.343362 0,0 -0.15608,-0.241912 -0.21842,-0.280928 -0.0624,-0.039 -0.18726,-0.171692 -0.18726,-0.171692 l -0.21841,-0.273129 -1.16442,-1.38698 -0.64008,-0.949096 -0.50766,-0.971164 -0.75046,-1.258104 -0.66214,-0.838738 -0.37523,-0.309006 -0.22084,-0.04411 -0.0884,0.04411 -0.0439,0.110348 -0.0442,0.176573 2.69278,4.745478 0.0217,0.154488 -0.0217,0.220715 c 0,0 -0.0607,0.07725 -0.0993,0.110376 -0.0386,0.03312 -0.24831,0.110375 -0.28695,0.115882 -0.0386,0.0058 -0.309,0 -0.35314,0.0058 -0.0442,0.0058 -0.54076,0.06622 -0.59044,0.06622 -0.0497,0 -0.96563,-0.01112 -1.02632,-0.01112 -0.0607,0 -0.59595,-0.06621 -0.64562,-0.06621 -0.0497,0 -0.49108,-0.09381 -0.51869,-0.09381 -0.0275,0 -0.34763,-0.104841 -0.34763,-0.104841 l -0.17661,-0.07726 -0.29224,-0.06071 -0.15609,-0.390187 V 52.91337 l -0.0146,-1.217368 -0.0312,-1.669977 -0.0938,-1.529508 -0.17179,-1.888475 -0.21842,-1.529512 -0.24971,-1.420258 -0.32778,-1.326621 -0.0548,-0.0489 -0.1544,-0.154513 c 0,0 -0.20972,-0.06619 -0.27039,-0.07173 -0.0607,-0.0058 -0.25384,-0.01113 -0.32555,0.01667 -0.0718,0.02762 -0.23728,0.165531 -0.23728,0.165531 l -0.25934,0.34763 -0.35314,0.529726 -0.25935,0.375229 -0.99323,1.550556 -0.91599,1.191887 c 0,0 -0.99326,0.938056 -1.02635,0.982204 -0.0331,0.04417 -2.59345,2.968682 -2.59345,2.968682 l -1.3133,1.081528 -0.9822,1.136703 -0.33108,0.408337 z"
       id="path1351" />
    <text
       xml:space="preserve"
       id="text856"
       style="font-size:10.5833px;line-height:1.25;font-family:sans-serif, Pacifico;-inkscape-font-specification:'sans-serif, Pacifico';letter-spacing:0px;white-space:pre;shape-inside:url(#rect858);fill:none;fill-opacity:1;stroke:#ffffff;stroke-opacity:1;"
       transform="matrix(1.5026524,0,0,1.1236199,-26.942141,-55.181878)"><tspan
         x="20.199219"
         y="131.45383"><tspan
           style="font-style:normal;font-variant:normal;font-weight:normal;font-stretch:normal;font-size:30.0752px;font-family:Forte;-inkscape-font-specification:Forte;fill:none;fill-opacity:1;stroke:#ffffff;stroke-opacity:1">  Pizzeria
</tspan></tspan><tspan
         x="20.199219"
         y="169.04782"><tspan
           style="font-style:normal;font-variant:normal;font-weight:normal;font-stretch:normal;font-size:30.0752px;font-family:Forte;-inkscape-font-specification:Forte;fill:none;fill-opacity:1;stroke:#ffffff;stroke-opacity:1">Castellier</tspan></tspan></text>
    <path
       style="fill:none;fill-opacity:1;stroke:#ffffff;stroke-width:0.639272px;stroke-linecap:butt;stroke-linejoin:miter;stroke-opacity:1"
       d="m 104.4874,47.384786 0.0417,16.630763 14.70863,0.50143 -0.12539,-13.246111 -0.71037,-1.504286 -2.08929,-0.877505 -1.16999,-0.250715 -1.67146,-0.334283 -1.37891,-0.250717 -1.12823,-0.292498 -1.08642,-0.167149 -1.00287,-0.0418 -1.37892,-0.08357 h -1.62964 z"
       id="path1333" />
    <path
       style="fill:none;fill-opacity:1;stroke:#ffffff;stroke-width:0.639272px;stroke-linecap:butt;stroke-linejoin:miter;stroke-opacity:1"
       d="m 119.11242,51.270868 1.7968,-0.919287 1.33716,-0.376072 1.21177,-0.877504 0.54322,-1.00286 0.0836,-1.170004 v -1.002859 l -0.29249,-1.170004 -0.585,-1.002859 -2.54894,-3.635367 -1.00287,-1.378932 -0.96108,-1.546077 -1.33713,-1.79679 -2.25643,-2.966795 -1.75502,-2.757866 -2.04749,-3.133936 -1.75502,-2.71608 -1.12822,-1.420719 -0.8357,-1.671433 -0.41788,-1.086431 -0.91928,-1.755007 -0.87751,-1.253573 -0.209,-0.459643 -0.37607,-0.04178 -0.16719,2.21465 -0.209,24.904363 14.58325,0.752143 -0.0418,-0.793933 v 0.376072 -0.459643 l -0.25073,-0.16715 -0.2925,-0.66857 -0.45965,-0.501425 -0.25069,-0.417863 -7.7304,-12.117895 -1.92216,-4.053227 -0.20899,-1.462505 v -0.167149 l 1.79679,3.384652 0.75216,1.420718 1.58784,2.507152 4.38753,6.727517 1.67143,2.172865 0.66857,0.75215 0.87749,1.086432 0.79395,1.086431 0.79392,0.710361 0.66857,1.044641 0.209,0.668578 0.0417,0.835715 v 0.584998 l -0.209,0.334289 -1.67145,-0.626787 -0.58499,0.167149 -0.41788,0.543215 v 0.626789 l -0.0418,0.919288 -0.209,0.2925 -0.54324,0.961076 v 0 0 0 z"
       id="path1335" />
    <path
       style="fill:none;fill-opacity:1;stroke:#ffffff;stroke-width:0.639272px;stroke-linecap:butt;stroke-linejoin:miter;stroke-opacity:1"
       d="m 118.611,47.760864 -0.585,-0.626788 -2.08929,-0.585005 -1.88037,-0.125345 -1.96392,-0.376072 c 0,0 -1.75502,0 -1.92215,0 -0.16719,0 -2.54894,-0.08358 -2.54894,-0.08358 l -4.80538,-0.04181 -2.71608,0.16715 -1.462487,0.08357 -3.0504,0.292498 -1.88033,0.417862 -1.46252,0.459643 -0.66858,0.292499 0.1254,16.839693 h -1.17002 l -0.75212,-0.0836 -0.0836,-7.855742 0.41785,-0.668575 0.0836,-1.044646 v -1.169982 l 0.0418,-0.835714 c 0,0 0.0418,-0.710361 0.0418,-0.877505 0,-0.167149 -0.25073,-0.752143 -0.25073,-0.752143 l -0.75216,-0.584986 -0.91929,-0.501426 -1.29535,-0.961076 -1.253571,-1.295359 -0.125398,-1.128221 v -1.462502 l 0.376074,-0.626789 1.044647,-1.838576 0.543218,-0.752147 3.88609,-5.473943 0.83572,-1.42072 0.8357,-1.253573 1.04465,-1.462506 1.54609,-2.381792 0.79392,-1.546077 1.04465,-1.546076 2.423567,-3.551795 2.00572,-3.426439 0.2925,-0.752146 1.42072,-2.548937 0.25595,-0.506651 0.18798,-0.235043 0.25593,-0.16715 0.13583,2.580289 -1.45365,2.815496 -1.09326,1.920557 -1.21144,2.481953 -2.348977,3.678608 -3.66383,5.658258 -4.45682,6.385539 -1.2118,1.525185 -0.91927,0.940179 -0.48055,0.814822 -0.14618,0.835722 0.18798,0.689464 0.8566,0.14625 1.77589,-0.501434 1.8177,-0.334281 2.38178,-0.334289 c 0,0 3.67717,-0.522324 3.76072,-0.522324 0.0836,0 3.698067,-0.313391 3.698067,-0.313391 l 1.73409,-0.08358 2.77877,0.16715 1.90126,0.02103 5.21711,0.403259 2.00919,0.384113 1.16712,0.251152 0.97503,0.265919 0.81256,0.206822 0.67957,0.280698 z"
       id="path1337" />
    <path
       style="fill:none;fill-opacity:1;stroke:#ffffff;stroke-width:0.639272px;stroke-linecap:butt;stroke-linejoin:miter;stroke-opacity:1"
       d="m 103.08757,17.2572 0.0418,-14.551918 4.31439,-0.01044 c 0,0 1.5356,0.208925 1.57741,0.208925 0.0417,0 1.64008,0.365623 1.68187,0.376072 0.0417,0.01044 1.33716,0.376072 1.33716,0.376072 l 3.03992,0.961073 0.71034,0.250717 0.87751,0.480536 0.68947,0.292501 0.66857,0.167149 1.1909,0.167149 c 0,0 0.85662,0 1.00286,0 0.14618,0 0.62678,0 0.75213,0 0.12538,0 0.77305,0.125345 0.87752,0.14625 0.10438,0.02078 1.17001,0.313394 1.17001,0.313394 l 0.52232,0.229824 1.43116,0.929737 0.4492,0.438751 0.61633,0.804378 0.11495,0.344733 c 0,0 0.0939,0.511876 0.0939,0.553661 0,0.04178 0.0217,0.501431 0.0217,0.543215 0,0.04178 -0.0417,0.407411 -0.0417,0.407411 l -0.0939,0.355182 -0.27163,0.41786 -0.5432,0.783481 -0.57455,0.522324 c 0,0 -0.53278,0.376073 -0.57457,0.376073 -0.0418,0 -0.8984,0.417859 -0.8984,0.417859 0,0 -0.71034,0.156688 -0.79392,0.16715 -0.0836,0.01044 -1.31627,0.167149 -1.31627,0.167149 l -1.25357,0.125345 c 0,0 -0.80438,0.08358 -0.98197,0.09402 -0.17758,0.01044 -2.6534,0.08357 -2.77875,0.08357 -0.12538,0 -1.81768,-0.13581 -1.81768,-0.13581 0,0 -1.08642,-0.219362 -1.18047,-0.240262 -0.0939,-0.02078 -0.8775,-0.396965 -0.96106,-0.407414 -0.0836,-0.01044 -1.05509,-0.386518 -1.09686,-0.386518 -0.0418,0 -1.15957,-0.2925 -1.15957,-0.2925 l -1.37128,-0.01044 -0.97506,0.01474 c 0,0 -0.70175,0.221609 -0.76084,0.243763 -0.0589,0.02224 -0.56877,0.258535 -0.59833,0.27331 -0.0295,0.01474 -0.48013,0.192059 -0.53923,0.22161 -0.0592,0.02955 -0.63528,0.16251 -0.63528,0.16251 l -0.0589,2.171707 z"
       id="path1339" />
    <path
       style="fill:none;fill-opacity:1;stroke:#ffffff;stroke-width:0.639272px;stroke-linecap:butt;stroke-linejoin:miter;stroke-opacity:1"
       d="m 105.36025,11.275651 h 2.85128 l 2.26035,0.07386 1.81714,0.29547 c 0,0 0.93072,0.221609 1.01937,0.310243 0.0887,0.08865 1.79261,0.162318 1.79261,0.162318 l 2.12063,-0.03134 1.4416,0.02078 3.71893,-0.146248 0.72082,-0.198488 0.59546,-0.386519 c 0,0 0.209,-0.292501 0.21938,-0.365625 0.01,-0.07312 0.15681,-0.616341 0.15681,-0.616341 l -0.0626,-0.564109 -0.10437,-0.376073 c 0,0 -0.0522,-0.177587 -0.10437,-0.219362 -0.0522,-0.04178 -0.13583,-0.177587 -0.18797,-0.219387 -0.0522,-0.04178 -0.209,-0.250713 -0.209,-0.250713 l -0.9611,-0.752149 c 0,0 -0.26116,-0.13581 -0.42829,-0.156687 -0.16719,-0.02078 -0.79394,-0.03134 -0.79394,-0.03134 0,0 -0.8566,0.01044 -0.92974,0.01044 -0.0732,0 -0.71035,0 -0.94016,0 -0.22979,0 -0.75216,-0.01044 -0.8984,-0.07312 -0.14618,-0.06268 -0.41786,-0.125345 -0.59544,-0.188049 -0.17759,-0.06268 -0.39698,-0.135809 -0.54323,-0.188025 -0.14618,-0.05224 -0.21939,-0.03134 -0.36564,-0.09402 -0.14617,-0.06268 -0.49098,-0.261162 -0.54319,-0.261162 -0.0522,0 -0.52233,-0.219362 -0.63726,-0.261162 -0.11495,-0.04178 -0.30293,-0.10447 -0.44919,-0.167148 -0.14617,-0.06268 -0.27159,-0.10447 -0.37606,-0.14625 -0.10438,-0.04178 -0.24017,-0.07312 -0.33429,-0.114907 -0.0939,-0.04178 -0.0836,-0.03134 -0.26115,-0.10447 -0.17759,-0.07315 -0.39698,-0.13581 -0.4701,-0.177587 -0.0732,-0.04178 -0.16719,-0.09402 -0.24015,-0.10447 -0.0732,-0.01044 -2.26688,-0.825272 -2.26688,-0.825272 0,0 -0.57457,-0.10447 -0.64768,-0.14625 -0.0732,-0.04178 -0.86706,-0.250714 -0.96107,-0.282054 -0.0939,-0.03134 -0.99241,-0.10447 -1.08645,-0.09402 -0.0939,0.01044 -0.71034,0.02078 -0.86706,0.01044 -0.1568,-0.01044 -0.2925,-0.01044 -0.47009,-0.01044 -0.17759,0 -1.75499,0.08358 -1.75499,0.08358 l -0.22978,0.01044 z"
       id="path1341" />
    <path
       style="fill:none;fill-opacity:1;stroke:#ffffff;stroke-width:0.639272px;stroke-linecap:butt;stroke-linejoin:miter;stroke-opacity:1"
       d="m 71.877362,66.163599 0.171788,0.749147 0.312143,0.14047 0.234124,-0.717927 c 0,0 -0.06234,-0.81158 -0.06234,-0.90523 0,-0.0936 -0.187252,-3.62088 -0.187252,-3.6833 0,-0.0625 -0.07805,-0.82719 -0.07805,-0.88962 0,-0.0625 -0.280925,-4.245169 -0.280925,-4.245169 l 2.27867,-0.920829 2.24743,-0.358965 c 0,0 1.669971,-0.296539 1.779229,-0.31215 0.109208,-0.0157 2.356688,-0.07805 2.43473,-0.09365 0.07805,-0.01571 2.372296,0 2.43473,0 0.06234,0 2.668831,0.124864 2.793698,0.124864 0.124919,0 1.295396,0.202909 1.295396,0.202909 l 0.48383,0.187275 0.12492,0.437007 v 0.202884 l -0.14038,0.187275 -0.24971,0.265326 -0.15608,0.187275 -0.280926,0.171668 -0.593067,0.140475 -0.546267,-0.01571 -0.202957,-0.421389 -5.915146,-0.187276 0.03116,9.0522 1.34222,-0.29653 1.935312,-0.23413 0.998861,-0.15608 0.967643,-0.12486 0.998861,-0.12487 0.920843,-0.0157 0.546243,-0.0312 h 0.15608 l -0.34335,-6.71112 1.1237,-0.593068 0.68672,-0.421399 0.63991,-0.632092 0.21842,-1.162742 -0.0781,-1.443668 -0.24971,-0.413593 -1.0517,-1.382146 -0.78353,-0.728375 -1.291216,-1.247069 -1.876117,-1.920259 -1.456768,-1.500894 -2.229261,-2.770033 -0.915986,-1.114635 -0.5187,-0.88288 -1.004272,-1.62229 -0.441432,-0.06622 -0.143518,0.04412 -0.110417,0.198657 -1.026356,1.390535 -0.717332,1.081526 -0.938045,1.45675 -0.982213,1.41261 -1.136702,1.798869 -1.467787,1.876119 -2.284445,3.156289 -0.430414,0.651126 c 0,0 -0.364186,0.5518 -0.40833,0.618017 -0.04422,0.06622 -0.286941,0.684233 -0.286941,0.684233 l -0.29796,0.893914 0.02174,0.441438 v 0.496618 c 0,0 0.176621,0.297971 0.176621,0.34212 0,0.04417 0.187493,0.320038 0.187493,0.320038 l 0.397288,0.419371 0.342126,0.397293 0.518676,0.49662 0.41937,0.11038 0.419371,0.0773 0.761474,0.18761 0.0882,3.15629 0.110416,1.77679 0.297984,2.27342 0.07732,0.35316 z"
       id="path1345" />
    <path
       style="fill:none;fill-opacity:1;stroke:#ffffff;stroke-width:0.639272px;stroke-linecap:butt;stroke-linejoin:miter;stroke-opacity:1"
       d="m 70.316649,54.9732 1.662167,-0.546254 1.178357,-0.226296 c 0,0 1.365632,-0.195104 1.451477,-0.202908 0.08578,-0.0077 1.271982,-0.0468 1.373436,-0.0468 0.101477,0 1.880659,-0.06246 1.880659,-0.06246 l 2.028961,-0.01571 h 1.435846 l 0.959865,-0.01571 2.942483,0.04603 c 0,0 1.291215,0.03312 1.390543,0.04417 0.09931,0.01112 1.1698,0.154512 1.1698,0.154512 h 0.62905 l 0.23171,-0.07724 0.0993,-0.253824 -0.26487,-0.474552 -0.34212,-0.364186 -1.831976,-1.710582 -0.651105,-0.739406 -1.545056,-1.423642 -0.380736,-0.320046 h -0.184835 l -0.132404,0.08829 -0.0145,0.121389 0.347635,0.386262 2.648632,3.266652 0.109456,0.241741 c 0,0 0.01932,0.117063 0.02416,0.148278 0.0048,0.03119 0.0073,0.163864 0.0073,0.183386 0,0.01957 -0.0145,0.128751 -0.0145,0.128751 h -0.21842 l -0.452618,-0.0077 -0.976897,-0.04323 -0.993255,-0.03312 -1.081517,-0.01112 -0.551801,-0.04417 -0.242799,-0.04417 -0.2759,-1.16982 -0.309001,-1.567107 -0.209722,-1.070496 -0.430388,-1.324315 -0.485599,-1.247069 -0.463515,-1.324318 -0.463488,-1.335351 -0.14352,-0.529728 -0.278872,-0.576434 -0.156084,-0.456509 -0.148351,-0.183386 c 0,0 -0.121046,-0.0273 -0.144485,-0.02344 -0.02416,0.0038 -0.13651,-0.0273 -0.167681,-0.0273 -0.03118,0 -0.241906,0.01571 -0.241906,0.01571 l -0.234124,0.117063 -0.249709,0.312143 -0.210689,0.234101 -0.351163,0.632094 -0.312167,0.593077 -0.296993,0.919038 -0.684254,0.949098 -0.485573,0.882873 -0.838742,1.434684 -0.949088,1.191884 -0.838742,1.125672 -0.927028,1.30225 -0.618004,0.88288 -0.71733,1.191886 -0.187736,0.286931 -0.05508,0.386262 0.0662,0.176573 z"
       id="path1347" />
    <path
       style="fill:none;fill-opacity:1;stroke:#ffffff;stroke-width:0.639272px;stroke-linecap:butt;stroke-linejoin:miter;stroke-opacity:1"
       d="m 122.71019,57.712269 c 0,0 0.0858,0.31995 0.0858,0.437 0,0.11707 -0.0146,0.38239 -0.0146,0.48383 0,0.10145 -0.0938,0.4292 -0.11687,0.55406 -0.0242,0.12486 -0.12497,0.81938 -0.15608,0.96765 -0.0312,0.14828 -0.10918,0.50723 -0.11714,0.57746 -0.007,0.0702 -0.14835,0.70233 -0.15608,0.75696 -0.007,0.0547 -0.24192,1.10031 -0.24192,1.10031 0,0 -0.007,0.437 -0.007,0.53064 0,0.0936 0.007,0.60088 0.0242,0.69453 0.0145,0.0936 0.0938,0.39799 0.16381,0.4292 0.0703,0.0312 0.32775,0.10145 0.35896,0.11706 0.0312,0.0157 0.23413,0.0157 0.28873,0.0157 0.0547,0 0.4058,-0.27313 0.43701,-0.31215 0.0312,-0.039 0.11688,-0.51503 0.13267,-0.55405 0.0144,-0.039 0.27312,-0.67111 0.28873,-0.71793 0.0144,-0.0468 0.17951,-1.00667 0.17951,-1.00667 0,0 0.0468,-0.48382 0.0468,-0.56187 0,-0.078 0.0857,-0.71013 0.0857,-0.80377 0,-0.0936 0.0935,-1.00667 0.0935,-1.00667 l 0.20295,-2.09917 0.18726,-1.911887 c 0,0 -0.0389,-0.335555 0.007,-0.335555 0.0468,0 0.33554,-0.07023 0.39018,-0.07023 0.0546,0 0.36676,-0.01571 0.36676,-0.01571 l 5.70445,0.07805 1.06129,-0.02344 c 0,0 0.90523,0.02344 0.93645,0.02344 0.0312,0 0.94423,0.02343 0.94423,0.02343 l 0.93642,0.109263 0.82719,0.039 c 0,0 0.59308,0.156083 0.67111,0.163886 0.078,0.0077 0.54625,0.09365 0.6321,0.124864 0.0857,0.03119 0.63989,0.124864 0.63989,0.124864 l 0.97547,0.288736 0.49162,0.156058 0.19498,0.07805 0.15608,0.07805 0.0468,0.202883 0.0389,0.140475 c 0,0 0,0.101449 0,0.132665 0,0.03119 0,0.06239 0,0.09365 0,0.03119 0,0.07805 0,0.109263 0,0.03119 0,0.09365 0,0.09365 0,0 0,0.07023 -0.0242,0.109263 -0.0242,0.039 -0.0468,0.05458 -0.0626,0.109263 -0.0144,0.05466 -0.007,0.06246 -0.0144,0.101449 -0.007,0.039 -0.0242,0.09365 -0.0242,0.09365 0,0 -0.007,0.01571 -0.0389,0.06239 -0.0312,0.0468 -0.0547,0.0702 -0.0858,0.11706 -0.0312,0.0468 -0.0468,0.0468 -0.0626,0.0936 -0.0146,0.0468 -0.0547,0.0937 -0.0547,0.0937 l -0.0547,0.0625 -0.0624,0.0625 c 0,0 -0.0703,0.0234 -0.10149,0.039 -0.0312,0.0157 -0.11687,0.0624 -0.14835,0.0624 -0.0312,0 -0.0703,0.0157 -0.11714,0.0312 -0.0468,0.0157 -0.12498,0.0157 -0.15608,0.0157 -0.0312,0 -0.10918,0 -0.14037,-0.008 -0.0312,-0.008 -0.0938,-0.039 -0.15609,-0.0625 -0.0624,-0.0234 -0.19498,-0.0547 -0.2264,-0.0702 -0.0312,-0.0157 -0.22638,-0.15608 -0.22638,-0.15608 l -0.63212,-0.296539 -0.75693,-0.413592 -0.61648,-0.257517 -0.88182,-0.31995 -0.78038,-0.218517 c 0,0 -0.63208,-0.08585 -0.70232,-0.08585 -0.0703,0 -0.79595,0.01571 -0.79595,0.01571 l -0.69454,0.03119 -0.26533,0.01571 -0.28873,0.02344 h -0.17155 l -0.0938,3.386775 -0.10919,1.65436 -0.10918,1.01448 -0.0312,0.93643 -0.0146,0.81158 c 0,0 -0.0312,0.49943 -0.0312,0.56186 0,0.0625 -0.0144,0.73354 -0.0144,0.73354 l -0.0146,0.28093 1.29542,-0.0781 c 0,0 0.70232,0.0937 0.82717,0.0937 0.12498,0 0.82719,0.12487 0.82719,0.12487 l 0.82719,0.15608 0.68672,0.15606 1.03008,0.28093 c 0,0 0.82717,0.28093 0.8896,0.29654 0.0623,0.0157 0.93645,0.218487 0.93645,0.218487 l 0.31215,-0.0157 0.0468,-0.156077 v -1.88848 l 0.0468,-0.67111 c 0,0 0.0144,-0.53065 0.0144,-0.65551 0,-0.12486 0.078,-0.99886 0.078,-0.99886 l 0.0468,-1.06129 0.0468,-0.96765 0.078,-0.6399 0.0935,-0.6555 0.49944,-0.31215 c 0,0 0.53066,-0.10926 0.60868,-0.10926 0.078,0 0.48384,-0.0468 0.48384,-0.0468 l 0.37457,-0.10926 1.1384,-0.55133 c 0,0 0.28693,-0.28142 0.31454,-0.30901 0.0275,-0.0276 0.27589,-0.391767 0.28693,-0.413842 0.0124,-0.02199 0.23727,-0.391778 0.23727,-0.391778 l 0.14908,-0.336596 0.33108,-0.606985 c 0,0 0.0442,-0.137939 0.0442,-0.209674 0,-0.07173 -0.0607,-0.292455 -0.0828,-0.336596 -0.0217,-0.04417 -0.1655,-0.226248 -0.1655,-0.226248 l -0.10492,-0.08829 -0.42489,-0.590424 -0.22083,-0.309007 -2.50518,-3.305279 -2.64864,-3.663954 -2.16305,-3.553583 -0.309,-0.949097 -0.26487,-1.12567 -0.28693,-0.882881 -0.2428,-0.750448 c 0,0 -0.35315,-0.651127 -0.37523,-0.651127 -0.0217,0 -0.33659,-0.08828 -0.35866,-0.0938 -0.0217,-0.0058 -0.20416,-0.02199 -0.27038,0.0058 -0.0662,0.02755 -0.3366,0.132431 -0.38627,0.154513 -0.0497,0.02199 -0.22616,0.209697 -0.24278,0.237265 -0.0169,0.02762 -0.20416,0.215207 -0.20416,0.215207 0,0 -0.41387,0.474544 -0.43593,0.49662 -0.0217,0.02199 -0.38074,0.457993 -0.39729,0.480067 -0.0169,0.02199 -0.23726,0.353148 -0.25934,0.380739 -0.0217,0.02762 -0.29248,0.430404 -0.30903,0.452478 -0.0169,0.02199 -1.9975,2.714851 -1.9975,2.714851 l -0.61249,0.761484 -1.58367,1.694028 -0.61803,0.662157 -1.01318,1.445417 -0.60088,0.577469 -0.99889,0.897415 -0.55404,0.460413 -1.27201,1.669979 -0.34336,0.241913 -0.48381,0.530642 c 0,0 -0.10149,0.374576 -0.10918,0.413597 -0.007,0.039 -0.0242,0.397978 -0.0242,0.460411 0,0.06246 -0.007,0.358963 -0.007,0.429201 0,0.07023 0,0.304338 0,0.304338 l 0.0468,0.195103 0.29653,0.48382 0.25752,0.366771 0.21069,0.210689 0.48381,0.491634 0.33556,0.171667 0.28874,0.132665 0.2107,0.163887 0.11687,0.179473 z"
       id="path1349" />
    <circle
       style="mix-blend-mode:normal;fill:#000000;fill-opacity:0;fill-rule:evenodd;stroke:#ffffff;stroke-width:2.888;stroke-miterlimit:4;stroke-dasharray:none;stroke-opacity:1"
       id="path866-8"
       sodipodi:type="arc"
       sodipodi:cx="103.24244"
       sodipodi:cy="-81.780724"
       sodipodi:rx="92.008438"
       sodipodi:ry="65.651039"
       sodipodi:start="0.13796356"
       sodipodi:end="3.0068358"
       sodipodi:open="true"
       sodipodi:arc-type="arc"
       transform="scale(1,-1)"
       d="m 194.37662,-72.751978 a 92.008438,65.651039 0 0 1 -91.2817,56.622209 92.008438,65.651039 0 0 1 -91.026773,-56.830779" />
  </g>
</svg>
